<mxfile host="65bd71144e">
    <diagram id="QSWu9Wnhy0qAhUBLh6C_" name="第 1 页">
        <mxGraphModel dx="767" dy="1570" grid="1" gridSize="10" guides="1" tooltips="1" connect="1" arrows="1" fold="1" page="1" pageScale="1" pageWidth="827" pageHeight="1169" math="0" shadow="0">
            <root>
                <mxCell id="0"/>
                <mxCell id="1" parent="0"/>
                <mxCell id="10" value="礼物组件主流程图" style="swimlane;childLayout=stackLayout;resizeParent=1;resizeParentMax=0;startSize=20;" parent="1" vertex="1">
                    <mxGeometry x="120" y="-120" width="775" height="790" as="geometry"/>
                </mxCell>
                <mxCell id="11" value="wap观看端" style="swimlane;startSize=20;" parent="10" vertex="1">
                    <mxGeometry y="20" width="280" height="770" as="geometry"/>
                </mxCell>
                <mxCell id="21" style="edgeStyle=none;html=1;exitX=0.5;exitY=1;exitDx=0;exitDy=0;entryX=0.5;entryY=0;entryDx=0;entryDy=0;" parent="11" source="15" target="20" edge="1">
                    <mxGeometry relative="1" as="geometry"/>
                </mxCell>
                <mxCell id="15" value="开始" style="rounded=1;whiteSpace=wrap;html=1;" parent="11" vertex="1">
                    <mxGeometry x="40" y="50" width="70" height="30" as="geometry"/>
                </mxCell>
                <mxCell id="27" value="" style="edgeStyle=none;html=1;fontSize=10;" parent="11" source="20" target="26" edge="1">
                    <mxGeometry relative="1" as="geometry"/>
                </mxCell>
                <mxCell id="20" value="&lt;font style=&quot;font-size: 10px&quot;&gt;点击礼物icon后,选择礼物&lt;/font&gt;" style="rounded=0;whiteSpace=wrap;html=1;" parent="11" vertex="1">
                    <mxGeometry x="40" y="110" width="70" height="30" as="geometry"/>
                </mxCell>
                <mxCell id="31" value="" style="edgeStyle=none;html=1;fontSize=10;" parent="11" source="26" target="30" edge="1">
                    <mxGeometry relative="1" as="geometry"/>
                </mxCell>
                <mxCell id="63" value="" style="edgeStyle=none;html=1;fontSize=10;" parent="11" source="26" target="56" edge="1">
                    <mxGeometry relative="1" as="geometry"/>
                </mxCell>
                <mxCell id="26" value="是否付费" style="rhombus;whiteSpace=wrap;html=1;fontSize=10;" parent="11" vertex="1">
                    <mxGeometry x="35" y="170" width="80" height="40" as="geometry"/>
                </mxCell>
                <mxCell id="34" value="" style="edgeStyle=none;html=1;fontSize=10;" parent="11" source="30" target="33" edge="1">
                    <mxGeometry relative="1" as="geometry"/>
                </mxCell>
                <mxCell id="30" value="是否登陆" style="rhombus;whiteSpace=wrap;html=1;fontSize=10;" parent="11" vertex="1">
                    <mxGeometry x="35" y="240" width="80" height="40" as="geometry"/>
                </mxCell>
                <mxCell id="35" style="edgeStyle=none;html=1;exitX=0;exitY=0.5;exitDx=0;exitDy=0;entryX=0;entryY=0.25;entryDx=0;entryDy=0;fontSize=10;" parent="11" source="33" target="20" edge="1">
                    <mxGeometry relative="1" as="geometry">
                        <Array as="points">
                            <mxPoint x="25" y="325"/>
                            <mxPoint x="25" y="270"/>
                            <mxPoint x="25" y="220"/>
                            <mxPoint x="25" y="118"/>
                        </Array>
                    </mxGeometry>
                </mxCell>
                <mxCell id="33" value="&lt;font style=&quot;font-size: 10px&quot;&gt;登陆相关流程&lt;/font&gt;" style="rounded=0;whiteSpace=wrap;html=1;" parent="11" vertex="1">
                    <mxGeometry x="40" y="310" width="70" height="30" as="geometry"/>
                </mxCell>
                <mxCell id="37" value="登&lt;br&gt;陆&lt;br&gt;成&lt;br&gt;功" style="text;html=1;align=center;verticalAlign=middle;resizable=0;points=[];autosize=1;strokeColor=none;fillColor=none;fontSize=10;" parent="11" vertex="1">
                    <mxGeometry y="170" width="30" height="50" as="geometry"/>
                </mxCell>
                <mxCell id="38" value="是" style="text;html=1;align=center;verticalAlign=middle;resizable=0;points=[];autosize=1;strokeColor=none;fillColor=none;fontSize=10;" parent="11" vertex="1">
                    <mxGeometry x="70" y="210" width="30" height="20" as="geometry"/>
                </mxCell>
                <mxCell id="44" value="是" style="text;html=1;align=center;verticalAlign=middle;resizable=0;points=[];autosize=1;strokeColor=none;fillColor=none;fontSize=10;" parent="11" vertex="1">
                    <mxGeometry x="115" y="240" width="30" height="20" as="geometry"/>
                </mxCell>
                <mxCell id="18" value="&lt;font style=&quot;font-size: 10px&quot;&gt;提示失败&lt;/font&gt;" style="rounded=0;whiteSpace=wrap;html=1;" parent="11" vertex="1">
                    <mxGeometry x="40" y="370" width="70" height="30" as="geometry"/>
                </mxCell>
                <mxCell id="52" value="" style="edgeStyle=none;html=1;fontSize=10;" parent="11" source="50" target="51" edge="1">
                    <mxGeometry relative="1" as="geometry"/>
                </mxCell>
                <mxCell id="50" value="&lt;font style=&quot;font-size: 10px&quot;&gt;提示成功并关闭礼物面板&lt;/font&gt;" style="rounded=0;whiteSpace=wrap;html=1;" parent="11" vertex="1">
                    <mxGeometry x="40" y="560" width="70" height="30" as="geometry"/>
                </mxCell>
                <mxCell id="51" value="结束" style="rounded=1;whiteSpace=wrap;html=1;" parent="11" vertex="1">
                    <mxGeometry x="40" y="620" width="70" height="30" as="geometry"/>
                </mxCell>
                <mxCell id="56" value="聊天高并发&lt;br&gt;配置" style="rhombus;whiteSpace=wrap;html=1;fontSize=10;" parent="11" vertex="1">
                    <mxGeometry x="145" y="170" width="80" height="40" as="geometry"/>
                </mxCell>
                <mxCell id="65" value="未开启" style="text;html=1;align=center;verticalAlign=middle;resizable=0;points=[];autosize=1;strokeColor=none;fillColor=none;fontSize=10;" parent="11" vertex="1">
                    <mxGeometry x="220" y="170" width="50" height="20" as="geometry"/>
                </mxCell>
                <mxCell id="69" value="开启" style="text;html=1;align=center;verticalAlign=middle;resizable=0;points=[];autosize=1;strokeColor=none;fillColor=none;fontSize=10;" parent="11" vertex="1">
                    <mxGeometry x="200" y="110" width="40" height="20" as="geometry"/>
                </mxCell>
                <mxCell id="77" style="edgeStyle=none;html=1;entryX=0.5;entryY=0;entryDx=0;entryDy=0;" edge="1" parent="11" source="71" target="74">
                    <mxGeometry relative="1" as="geometry"/>
                </mxCell>
                <mxCell id="71" value="是否微信支付且授权" style="rhombus;whiteSpace=wrap;html=1;fontSize=10;" vertex="1" parent="11">
                    <mxGeometry x="35" y="430" width="80" height="40" as="geometry"/>
                </mxCell>
                <mxCell id="80" value="" style="edgeStyle=none;html=1;entryX=0.5;entryY=0;entryDx=0;entryDy=0;" edge="1" parent="11" source="74" target="50">
                    <mxGeometry relative="1" as="geometry"/>
                </mxCell>
                <mxCell id="74" value="&lt;span style=&quot;font-size: 10px&quot;&gt;跳转支付宝支付链接&lt;/span&gt;" style="rounded=0;whiteSpace=wrap;html=1;" vertex="1" parent="11">
                    <mxGeometry x="40" y="500" width="70" height="30" as="geometry"/>
                </mxCell>
                <mxCell id="82" value="微信sdk" style="swimlane;startSize=20;" vertex="1" parent="10">
                    <mxGeometry x="280" y="20" width="120" height="770" as="geometry"/>
                </mxCell>
                <mxCell id="86" value="支付sdk调用" style="rhombus;whiteSpace=wrap;html=1;fontSize=10;" vertex="1" parent="82">
                    <mxGeometry x="20" y="430" width="80" height="40" as="geometry"/>
                </mxCell>
                <mxCell id="66" value="sdk" style="swimlane;startSize=20;" parent="10" vertex="1">
                    <mxGeometry x="400" y="20" width="120" height="770" as="geometry"/>
                </mxCell>
                <mxCell id="67" value="&lt;font style=&quot;font-size: 10px&quot;&gt;发送礼物支付成功消息&lt;/font&gt;" style="rounded=0;whiteSpace=wrap;html=1;" parent="66" vertex="1">
                    <mxGeometry x="25" y="110" width="70" height="30" as="geometry"/>
                </mxCell>
                <mxCell id="12" value="后端" style="swimlane;startSize=20;" parent="10" vertex="1">
                    <mxGeometry x="520" y="20" width="135" height="770" as="geometry"/>
                </mxCell>
                <mxCell id="24" value="接口调用:" style="rhombus;whiteSpace=wrap;html=1;fontSize=10;" parent="12" vertex="1">
                    <mxGeometry x="20" y="240" width="80" height="40" as="geometry"/>
                </mxCell>
                <mxCell id="47" value="code&lt;br&gt;!==&lt;br&gt;200" style="text;html=1;align=center;verticalAlign=middle;resizable=0;points=[];autosize=1;strokeColor=none;fillColor=none;fontSize=10;" parent="12" vertex="1">
                    <mxGeometry x="55" y="290" width="40" height="40" as="geometry"/>
                </mxCell>
                <mxCell id="54" value="成功" style="text;html=1;align=center;verticalAlign=middle;resizable=0;points=[];autosize=1;strokeColor=none;fillColor=none;fontSize=10;" parent="12" vertex="1">
                    <mxGeometry x="95" y="240" width="40" height="20" as="geometry"/>
                </mxCell>
                <mxCell id="55" value="&lt;div style=&quot;color: rgb(212 , 212 , 212) ; background-color: rgb(30 , 30 , 30) ; font-family: &amp;#34;consolas&amp;#34; , &amp;#34;courier new&amp;#34; , monospace ; line-height: 19px&quot;&gt;&lt;span style=&quot;color: rgb(206 , 145 , 120)&quot;&gt;&lt;font style=&quot;font-size: 10px&quot;&gt;gift_send_success&lt;/font&gt;&lt;/span&gt;&lt;/div&gt;" style="text;html=1;align=center;verticalAlign=middle;resizable=0;points=[];autosize=1;strokeColor=none;fillColor=none;fontSize=10;" parent="12" vertex="1">
                    <mxGeometry x="12.5" y="560" width="110" height="20" as="geometry"/>
                </mxCell>
                <mxCell id="88" value="&#10;&#10;&lt;span style=&quot;color: rgb(240, 240, 240); font-family: helvetica; font-size: 10px; font-style: normal; font-weight: 400; letter-spacing: normal; text-align: center; text-indent: 0px; text-transform: none; word-spacing: 0px; background-color: rgb(42, 42, 42); display: inline; float: none;&quot;&gt;监听订单支付成功&lt;/span&gt;&#10;&#10;" style="rounded=0;whiteSpace=wrap;html=1;" vertex="1" parent="12">
                    <mxGeometry x="25" y="432.5" width="70" height="35" as="geometry"/>
                </mxCell>
                <mxCell id="13" value="pass" style="swimlane;startSize=20;" parent="10" vertex="1">
                    <mxGeometry x="655" y="20" width="120" height="770" as="geometry"/>
                </mxCell>
                <mxCell id="48" value="&lt;font style=&quot;font-size: 10px&quot;&gt;发送礼物支付成功消息&lt;/font&gt;" style="rounded=0;whiteSpace=wrap;html=1;" parent="13" vertex="1">
                    <mxGeometry x="25" y="435" width="70" height="30" as="geometry"/>
                </mxCell>
                <mxCell id="46" value="" style="edgeStyle=none;html=1;fontSize=10;entryX=1;entryY=0.5;entryDx=0;entryDy=0;fillColor=#e51400;strokeColor=#B20000;" parent="10" source="24" target="18" edge="1">
                    <mxGeometry relative="1" as="geometry">
                        <mxPoint x="205" y="380" as="targetPoint"/>
                        <Array as="points">
                            <mxPoint x="580" y="405"/>
                        </Array>
                    </mxGeometry>
                </mxCell>
                <mxCell id="49" value="" style="edgeStyle=none;html=1;fontSize=10;entryX=0.5;entryY=0;entryDx=0;entryDy=0;exitX=1;exitY=0.5;exitDx=0;exitDy=0;fillColor=#008a00;strokeColor=#005700;" parent="10" source="24" target="71" edge="1">
                    <mxGeometry relative="1" as="geometry">
                        <Array as="points">
                            <mxPoint x="620" y="430"/>
                            <mxPoint x="350" y="430"/>
                            <mxPoint x="75" y="430"/>
                        </Array>
                    </mxGeometry>
                </mxCell>
                <mxCell id="53" value="" style="edgeStyle=none;html=1;fontSize=10;entryX=1;entryY=0.5;entryDx=0;entryDy=0;fillColor=#0050ef;strokeColor=#001DBC;" parent="10" source="48" target="50" edge="1">
                    <mxGeometry relative="1" as="geometry">
                        <mxPoint x="325" y="470" as="targetPoint"/>
                        <Array as="points">
                            <mxPoint x="715" y="595"/>
                        </Array>
                    </mxGeometry>
                </mxCell>
                <mxCell id="45" style="edgeStyle=none;html=1;exitX=1;exitY=0.5;exitDx=0;exitDy=0;fontSize=10;entryX=0;entryY=0.5;entryDx=0;entryDy=0;fillColor=#e3c800;strokeColor=#B09500;" parent="10" source="30" target="24" edge="1">
                    <mxGeometry relative="1" as="geometry">
                        <mxPoint x="150.0000000000001" y="279.7931034482758" as="targetPoint"/>
                    </mxGeometry>
                </mxCell>
                <mxCell id="64" style="edgeStyle=none;html=1;entryX=0.5;entryY=0;entryDx=0;entryDy=0;fontSize=10;exitX=1;exitY=0.5;exitDx=0;exitDy=0;fillColor=#e3c800;strokeColor=#B09500;" parent="10" source="56" target="24" edge="1">
                    <mxGeometry relative="1" as="geometry">
                        <Array as="points">
                            <mxPoint x="580" y="210"/>
                        </Array>
                    </mxGeometry>
                </mxCell>
                <mxCell id="68" value="" style="edgeStyle=none;html=1;fontSize=10;entryX=0;entryY=0.5;entryDx=0;entryDy=0;" parent="10" source="56" target="67" edge="1">
                    <mxGeometry relative="1" as="geometry">
                        <mxPoint x="185" y="110" as="targetPoint"/>
                        <Array as="points">
                            <mxPoint x="185" y="145"/>
                        </Array>
                    </mxGeometry>
                </mxCell>
                <mxCell id="70" value="" style="edgeStyle=none;html=1;fontSize=10;fillColor=#0050ef;strokeColor=#001DBC;entryX=1;entryY=0.5;entryDx=0;entryDy=0;" parent="10" source="67" target="50" edge="1">
                    <mxGeometry relative="1" as="geometry">
                        <mxPoint x="170" y="530" as="targetPoint"/>
                        <Array as="points">
                            <mxPoint x="460" y="430"/>
                            <mxPoint x="460" y="595"/>
                        </Array>
                    </mxGeometry>
                </mxCell>
                <mxCell id="84" value="" style="edgeStyle=none;html=1;entryX=0;entryY=0.5;entryDx=0;entryDy=0;" edge="1" parent="10" source="71">
                    <mxGeometry relative="1" as="geometry">
                        <mxPoint x="305" y="470.0000000000002" as="targetPoint"/>
                    </mxGeometry>
                </mxCell>
                <mxCell id="89" value="" style="edgeStyle=none;html=1;entryX=0;entryY=0.5;entryDx=0;entryDy=0;" edge="1" parent="10" source="86" target="88">
                    <mxGeometry relative="1" as="geometry">
                        <mxPoint x="460" y="470" as="targetPoint"/>
                    </mxGeometry>
                </mxCell>
                <mxCell id="91" value="" style="edgeStyle=none;html=1;" edge="1" parent="10" source="88" target="48">
                    <mxGeometry relative="1" as="geometry"/>
                </mxCell>
                <mxCell id="39" value="否" style="text;html=1;align=center;verticalAlign=middle;resizable=0;points=[];autosize=1;strokeColor=none;fillColor=none;fontSize=10;" parent="1" vertex="1">
                    <mxGeometry x="195" y="180" width="30" height="20" as="geometry"/>
                </mxCell>
                <mxCell id="81" value="否" style="text;html=1;align=center;verticalAlign=middle;resizable=0;points=[];autosize=1;strokeColor=none;fillColor=none;" vertex="1" parent="1">
                    <mxGeometry x="195" y="370" width="30" height="20" as="geometry"/>
                </mxCell>
                <mxCell id="85" value="是" style="text;html=1;align=center;verticalAlign=middle;resizable=0;points=[];autosize=1;strokeColor=none;fillColor=none;" vertex="1" parent="1">
                    <mxGeometry x="245" y="330" width="30" height="20" as="geometry"/>
                </mxCell>
                <mxCell id="92" value="礼物组件主流程图" style="swimlane;childLayout=stackLayout;resizeParent=1;resizeParentMax=0;startSize=20;" vertex="1" parent="1">
                    <mxGeometry x="1000" y="-120" width="775" height="790" as="geometry"/>
                </mxCell>
                <mxCell id="93" value="pc观看端" style="swimlane;startSize=20;" vertex="1" parent="92">
                    <mxGeometry y="20" width="280" height="770" as="geometry"/>
                </mxCell>
                <mxCell id="94" style="edgeStyle=none;html=1;exitX=0.5;exitY=1;exitDx=0;exitDy=0;entryX=0.5;entryY=0;entryDx=0;entryDy=0;" edge="1" parent="93" source="95" target="97">
                    <mxGeometry relative="1" as="geometry"/>
                </mxCell>
                <mxCell id="95" value="开始" style="rounded=1;whiteSpace=wrap;html=1;" vertex="1" parent="93">
                    <mxGeometry x="40" y="50" width="70" height="30" as="geometry"/>
                </mxCell>
                <mxCell id="96" value="" style="edgeStyle=none;html=1;fontSize=10;" edge="1" parent="93" source="97" target="100">
                    <mxGeometry relative="1" as="geometry"/>
                </mxCell>
                <mxCell id="97" value="&lt;font style=&quot;font-size: 10px&quot;&gt;点击礼物icon后,选择礼物&lt;/font&gt;" style="rounded=0;whiteSpace=wrap;html=1;" vertex="1" parent="93">
                    <mxGeometry x="40" y="110" width="70" height="30" as="geometry"/>
                </mxCell>
                <mxCell id="98" value="" style="edgeStyle=none;html=1;fontSize=10;" edge="1" parent="93" source="100" target="102">
                    <mxGeometry relative="1" as="geometry"/>
                </mxCell>
                <mxCell id="99" value="" style="edgeStyle=none;html=1;fontSize=10;" edge="1" parent="93" source="100" target="112">
                    <mxGeometry relative="1" as="geometry"/>
                </mxCell>
                <mxCell id="100" value="是否付费" style="rhombus;whiteSpace=wrap;html=1;fontSize=10;" vertex="1" parent="93">
                    <mxGeometry x="35" y="170" width="80" height="40" as="geometry"/>
                </mxCell>
                <mxCell id="101" value="" style="edgeStyle=none;html=1;fontSize=10;" edge="1" parent="93" source="102" target="104">
                    <mxGeometry relative="1" as="geometry"/>
                </mxCell>
                <mxCell id="102" value="是否登陆" style="rhombus;whiteSpace=wrap;html=1;fontSize=10;" vertex="1" parent="93">
                    <mxGeometry x="35" y="240" width="80" height="40" as="geometry"/>
                </mxCell>
                <mxCell id="103" style="edgeStyle=none;html=1;exitX=0;exitY=0.5;exitDx=0;exitDy=0;entryX=0;entryY=0.25;entryDx=0;entryDy=0;fontSize=10;" edge="1" parent="93" source="104" target="97">
                    <mxGeometry relative="1" as="geometry">
                        <Array as="points">
                            <mxPoint x="25" y="325"/>
                            <mxPoint x="25" y="270"/>
                            <mxPoint x="25" y="220"/>
                            <mxPoint x="25" y="118"/>
                        </Array>
                    </mxGeometry>
                </mxCell>
                <mxCell id="104" value="&lt;font style=&quot;font-size: 10px&quot;&gt;登陆相关流程&lt;/font&gt;" style="rounded=0;whiteSpace=wrap;html=1;" vertex="1" parent="93">
                    <mxGeometry x="40" y="310" width="70" height="30" as="geometry"/>
                </mxCell>
                <mxCell id="105" value="登&lt;br&gt;陆&lt;br&gt;成&lt;br&gt;功" style="text;html=1;align=center;verticalAlign=middle;resizable=0;points=[];autosize=1;strokeColor=none;fillColor=none;fontSize=10;" vertex="1" parent="93">
                    <mxGeometry y="170" width="30" height="50" as="geometry"/>
                </mxCell>
                <mxCell id="106" value="是" style="text;html=1;align=center;verticalAlign=middle;resizable=0;points=[];autosize=1;strokeColor=none;fillColor=none;fontSize=10;" vertex="1" parent="93">
                    <mxGeometry x="70" y="210" width="30" height="20" as="geometry"/>
                </mxCell>
                <mxCell id="107" value="是" style="text;html=1;align=center;verticalAlign=middle;resizable=0;points=[];autosize=1;strokeColor=none;fillColor=none;fontSize=10;" vertex="1" parent="93">
                    <mxGeometry x="115" y="240" width="30" height="20" as="geometry"/>
                </mxCell>
                <mxCell id="108" value="&lt;font style=&quot;font-size: 10px&quot;&gt;提示失败&lt;/font&gt;" style="rounded=0;whiteSpace=wrap;html=1;" vertex="1" parent="93">
                    <mxGeometry x="40" y="370" width="70" height="30" as="geometry"/>
                </mxCell>
                <mxCell id="109" value="" style="edgeStyle=none;html=1;fontSize=10;" edge="1" parent="93" source="110" target="111">
                    <mxGeometry relative="1" as="geometry"/>
                </mxCell>
                <mxCell id="110" value="&lt;font style=&quot;font-size: 10px&quot;&gt;提示成功并关闭礼物面板&lt;/font&gt;" style="rounded=0;whiteSpace=wrap;html=1;" vertex="1" parent="93">
                    <mxGeometry x="40" y="560" width="70" height="30" as="geometry"/>
                </mxCell>
                <mxCell id="111" value="结束" style="rounded=1;whiteSpace=wrap;html=1;" vertex="1" parent="93">
                    <mxGeometry x="40" y="620" width="70" height="30" as="geometry"/>
                </mxCell>
                <mxCell id="112" value="聊天高并发&lt;br&gt;配置" style="rhombus;whiteSpace=wrap;html=1;fontSize=10;" vertex="1" parent="93">
                    <mxGeometry x="145" y="170" width="80" height="40" as="geometry"/>
                </mxCell>
                <mxCell id="113" value="未开启" style="text;html=1;align=center;verticalAlign=middle;resizable=0;points=[];autosize=1;strokeColor=none;fillColor=none;fontSize=10;" vertex="1" parent="93">
                    <mxGeometry x="220" y="170" width="50" height="20" as="geometry"/>
                </mxCell>
                <mxCell id="114" value="开启" style="text;html=1;align=center;verticalAlign=middle;resizable=0;points=[];autosize=1;strokeColor=none;fillColor=none;fontSize=10;" vertex="1" parent="93">
                    <mxGeometry x="200" y="110" width="40" height="20" as="geometry"/>
                </mxCell>
                <mxCell id="147" value="打开二维码弹框" style="rounded=0;whiteSpace=wrap;html=1;" vertex="1" parent="93">
                    <mxGeometry x="40" y="440" width="70" height="35" as="geometry"/>
                </mxCell>
                <mxCell id="119" value="移动支付" style="swimlane;startSize=20;" vertex="1" parent="92">
                    <mxGeometry x="280" y="20" width="120" height="770" as="geometry"/>
                </mxCell>
                <mxCell id="144" value="扫码支付" style="rounded=0;whiteSpace=wrap;html=1;" vertex="1" parent="119">
                    <mxGeometry x="25" y="440" width="70" height="35" as="geometry"/>
                </mxCell>
                <mxCell id="121" value="sdk" style="swimlane;startSize=20;" vertex="1" parent="92">
                    <mxGeometry x="400" y="20" width="120" height="770" as="geometry"/>
                </mxCell>
                <mxCell id="122" value="&lt;font style=&quot;font-size: 10px&quot;&gt;发送礼物支付成功消息&lt;/font&gt;" style="rounded=0;whiteSpace=wrap;html=1;" vertex="1" parent="121">
                    <mxGeometry x="25" y="110" width="70" height="30" as="geometry"/>
                </mxCell>
                <mxCell id="123" value="后端" style="swimlane;startSize=20;" vertex="1" parent="92">
                    <mxGeometry x="520" y="20" width="135" height="770" as="geometry"/>
                </mxCell>
                <mxCell id="124" value="接口调用:" style="rhombus;whiteSpace=wrap;html=1;fontSize=10;" vertex="1" parent="123">
                    <mxGeometry x="20" y="240" width="80" height="40" as="geometry"/>
                </mxCell>
                <mxCell id="125" value="code&lt;br&gt;!==&lt;br&gt;200" style="text;html=1;align=center;verticalAlign=middle;resizable=0;points=[];autosize=1;strokeColor=none;fillColor=none;fontSize=10;" vertex="1" parent="123">
                    <mxGeometry x="55" y="290" width="40" height="40" as="geometry"/>
                </mxCell>
                <mxCell id="126" value="成功" style="text;html=1;align=center;verticalAlign=middle;resizable=0;points=[];autosize=1;strokeColor=none;fillColor=none;fontSize=10;" vertex="1" parent="123">
                    <mxGeometry x="95" y="240" width="40" height="20" as="geometry"/>
                </mxCell>
                <mxCell id="127" value="&lt;div style=&quot;color: rgb(212 , 212 , 212) ; background-color: rgb(30 , 30 , 30) ; font-family: &amp;#34;consolas&amp;#34; , &amp;#34;courier new&amp;#34; , monospace ; line-height: 19px&quot;&gt;&lt;span style=&quot;color: rgb(206 , 145 , 120)&quot;&gt;&lt;font style=&quot;font-size: 10px&quot;&gt;gift_send_success&lt;/font&gt;&lt;/span&gt;&lt;/div&gt;" style="text;html=1;align=center;verticalAlign=middle;resizable=0;points=[];autosize=1;strokeColor=none;fillColor=none;fontSize=10;" vertex="1" parent="123">
                    <mxGeometry x="12.5" y="560" width="110" height="20" as="geometry"/>
                </mxCell>
                <mxCell id="128" value="&#10;&#10;&lt;span style=&quot;color: rgb(240, 240, 240); font-family: helvetica; font-size: 10px; font-style: normal; font-weight: 400; letter-spacing: normal; text-align: center; text-indent: 0px; text-transform: none; word-spacing: 0px; background-color: rgb(42, 42, 42); display: inline; float: none;&quot;&gt;监听订单支付成功&lt;/span&gt;&#10;&#10;" style="rounded=0;whiteSpace=wrap;html=1;" vertex="1" parent="123">
                    <mxGeometry x="25" y="440" width="70" height="35" as="geometry"/>
                </mxCell>
                <mxCell id="129" value="pass" style="swimlane;startSize=20;" vertex="1" parent="92">
                    <mxGeometry x="655" y="20" width="120" height="770" as="geometry"/>
                </mxCell>
                <mxCell id="130" value="&lt;font style=&quot;font-size: 10px&quot;&gt;发送礼物支付成功消息&lt;/font&gt;" style="rounded=0;whiteSpace=wrap;html=1;" vertex="1" parent="129">
                    <mxGeometry x="25" y="442.5" width="70" height="30" as="geometry"/>
                </mxCell>
                <mxCell id="131" value="" style="edgeStyle=none;html=1;fontSize=10;entryX=1;entryY=0.5;entryDx=0;entryDy=0;fillColor=#e51400;strokeColor=#B20000;" edge="1" parent="92" source="124" target="108">
                    <mxGeometry relative="1" as="geometry">
                        <mxPoint x="205" y="380" as="targetPoint"/>
                        <Array as="points">
                            <mxPoint x="580" y="405"/>
                        </Array>
                    </mxGeometry>
                </mxCell>
                <mxCell id="132" value="" style="edgeStyle=none;html=1;fontSize=10;entryX=0.5;entryY=0;entryDx=0;entryDy=0;exitX=1;exitY=0.5;exitDx=0;exitDy=0;fillColor=#008a00;strokeColor=#005700;" edge="1" parent="92" source="124" target="147">
                    <mxGeometry relative="1" as="geometry">
                        <Array as="points">
                            <mxPoint x="620" y="430"/>
                            <mxPoint x="350" y="430"/>
                            <mxPoint x="75" y="430"/>
                        </Array>
                        <mxPoint x="75" y="450" as="targetPoint"/>
                    </mxGeometry>
                </mxCell>
                <mxCell id="133" value="" style="edgeStyle=none;html=1;fontSize=10;entryX=1;entryY=0.5;entryDx=0;entryDy=0;fillColor=#0050ef;strokeColor=#001DBC;" edge="1" parent="92" source="130" target="110">
                    <mxGeometry relative="1" as="geometry">
                        <mxPoint x="325" y="470" as="targetPoint"/>
                        <Array as="points">
                            <mxPoint x="715" y="595"/>
                        </Array>
                    </mxGeometry>
                </mxCell>
                <mxCell id="134" style="edgeStyle=none;html=1;exitX=1;exitY=0.5;exitDx=0;exitDy=0;fontSize=10;entryX=0;entryY=0.5;entryDx=0;entryDy=0;fillColor=#e3c800;strokeColor=#B09500;" edge="1" parent="92" source="102" target="124">
                    <mxGeometry relative="1" as="geometry">
                        <mxPoint x="150.0000000000001" y="279.7931034482758" as="targetPoint"/>
                    </mxGeometry>
                </mxCell>
                <mxCell id="135" style="edgeStyle=none;html=1;entryX=0.5;entryY=0;entryDx=0;entryDy=0;fontSize=10;exitX=1;exitY=0.5;exitDx=0;exitDy=0;fillColor=#e3c800;strokeColor=#B09500;" edge="1" parent="92" source="112" target="124">
                    <mxGeometry relative="1" as="geometry">
                        <Array as="points">
                            <mxPoint x="580" y="210"/>
                        </Array>
                    </mxGeometry>
                </mxCell>
                <mxCell id="136" value="" style="edgeStyle=none;html=1;fontSize=10;entryX=0;entryY=0.5;entryDx=0;entryDy=0;" edge="1" parent="92" source="112" target="122">
                    <mxGeometry relative="1" as="geometry">
                        <mxPoint x="185" y="110" as="targetPoint"/>
                        <Array as="points">
                            <mxPoint x="185" y="145"/>
                        </Array>
                    </mxGeometry>
                </mxCell>
                <mxCell id="137" value="" style="edgeStyle=none;html=1;fontSize=10;fillColor=#0050ef;strokeColor=#001DBC;entryX=1;entryY=0.5;entryDx=0;entryDy=0;" edge="1" parent="92" source="122" target="110">
                    <mxGeometry relative="1" as="geometry">
                        <mxPoint x="170" y="530" as="targetPoint"/>
                        <Array as="points">
                            <mxPoint x="460" y="430"/>
                            <mxPoint x="460" y="595"/>
                        </Array>
                    </mxGeometry>
                </mxCell>
                <mxCell id="139" value="" style="edgeStyle=none;html=1;entryX=0;entryY=0.5;entryDx=0;entryDy=0;exitX=1;exitY=0.5;exitDx=0;exitDy=0;" edge="1" parent="92" source="144" target="128">
                    <mxGeometry relative="1" as="geometry">
                        <mxPoint x="460" y="470" as="targetPoint"/>
                        <mxPoint x="380" y="470" as="sourcePoint"/>
                    </mxGeometry>
                </mxCell>
                <mxCell id="140" value="" style="edgeStyle=none;html=1;" edge="1" parent="92" source="128" target="130">
                    <mxGeometry relative="1" as="geometry"/>
                </mxCell>
                <mxCell id="148" value="" style="edgeStyle=none;html=1;entryX=0;entryY=0.5;entryDx=0;entryDy=0;" edge="1" parent="92" source="147" target="144">
                    <mxGeometry relative="1" as="geometry"/>
                </mxCell>
                <mxCell id="141" value="否" style="text;html=1;align=center;verticalAlign=middle;resizable=0;points=[];autosize=1;strokeColor=none;fillColor=none;fontSize=10;" vertex="1" parent="1">
                    <mxGeometry x="1075" y="200" width="30" height="20" as="geometry"/>
                </mxCell>
            </root>
        </mxGraphModel>
    </diagram>
</mxfile>